<?xml version="1.0" encoding="utf-8"?>
<!-- Uploaded to: SVG Repo, www.svgrepo.com, Generator: SVG Repo Mixer Tools -->
<svg width="800px" height="800px" viewBox="0 0 1024 1024" class="icon"  version="1.1" xmlns="http://www.w3.org/2000/svg"><path d="M789.333333 384h128v512h-128zM618.666667 554.666667h128v341.333333h-128zM448 469.333333h128v426.666667h-128zM277.333333 682.666667h128v213.333333h-128zM106.666667 597.333333h128v298.666667H106.666667z" fill="#00BCD4" /><path d="M170.666667 341.333333m-64 0a64 64 0 1 0 128 0 64 64 0 1 0-128 0Z" fill="#3F51B5" /><path d="M341.333333 384m-64 0a64 64 0 1 0 128 0 64 64 0 1 0-128 0Z" fill="#3F51B5" /><path d="M512 234.666667m-64 0a64 64 0 1 0 128 0 64 64 0 1 0-128 0Z" fill="#3F51B5" /><path d="M682.666667 277.333333m-64 0a64 64 0 1 0 128 0 64 64 0 1 0-128 0Z" fill="#3F51B5" /><path d="M853.333333 192m-64 0a64 64 0 1 0 128 0 64 64 0 1 0-128 0Z" fill="#3F51B5" /><path d="M834.133333 153.6l-155.733333 78.933333-177.066667-44.8-170.666666 149.333334-149.333334-36.266667-21.333333 81.066667 192 49.066666 170.666667-149.333333 164.266666 40.533333 185.6-91.733333z" fill="#3F51B5" /></svg>